<svg width="13" height="13" viewBox="0 0 13 13" fill="none" xmlns="http://www.w3.org/2000/svg">
<g clip-path="url(#clip0_1_618)">
<path d="M13 6.5C13 2.91015 10.0899 0 6.5 0C2.91015 0 0 2.91015 0 6.5C0 9.74429 2.37694 12.4334 5.48438 12.921V8.37891H3.83398V6.5H5.48438V5.06797C5.48438 3.43891 6.45481 2.53906 7.93952 2.53906C8.65046 2.53906 9.39453 2.66602 9.39453 2.66602V4.26562H8.57492C7.7675 4.26562 7.51563 4.76671 7.51563 5.28125V6.5H9.31836L9.03018 8.37891H7.51563V12.921C10.6231 12.4334 13 9.74429 13 6.5Z" fill="#1A1A1C"/>
<path d="M9.03018 8.37891L9.31836 6.5H7.51563V5.28125C7.51563 4.76722 7.7675 4.26563 8.57492 4.26563H9.39453V2.66602C9.39453 2.66602 8.65071 2.53906 7.93952 2.53906C6.45481 2.53906 5.48438 3.43891 5.48438 5.06797V6.5H3.83398V8.37891H5.48438V12.921C6.15737 13.0263 6.84263 13.0263 7.51563 12.921V8.37891H9.03018Z" fill="white"/>
</g>
<defs>
<clipPath id="clip0_1_618">
<rect width="13" height="13" fill="white"/>
</clipPath>
</defs>
</svg>
