<svg width="25" height="26" viewBox="0 0 25 26" fill="none" xmlns="http://www.w3.org/2000/svg">
<path fill-rule="evenodd" clip-rule="evenodd" d="M12.5212 2.31322C6.72416 2.31322 2.00809 7.02929 2.00809 12.8264C2.00809 18.6234 6.72416 23.3395 12.5212 23.3395C18.3183 23.3395 23.0344 18.6234 23.0344 12.8264C23.0344 7.02929 18.3183 2.31322 12.5212 2.31322ZM12.5212 25.1947C5.70129 25.1947 0.152832 19.6462 0.152832 12.8263C0.152832 6.00638 5.70129 0.457916 12.5212 0.457916C19.3412 0.457916 24.8896 6.00638 24.8896 12.8263C24.8896 19.6462 19.3412 25.1947 12.5212 25.1947Z" fill="#141416"/>
<path fill-rule="evenodd" clip-rule="evenodd" d="M16.7648 17.3933C16.6028 17.3933 16.4395 17.3513 16.2899 17.2635L11.627 14.4818C11.3475 14.3136 11.1743 14.0106 11.1743 13.684V7.68785C11.1743 7.1758 11.5899 6.76022 12.1019 6.76022C12.6152 6.76022 13.0296 7.1758 13.0296 7.68785V13.1572L17.241 15.6679C17.6801 15.9314 17.8248 16.5003 17.5626 16.9406C17.3882 17.2313 17.0802 17.3933 16.7648 17.3933Z" fill="#141416"/>
</svg>
