<svg width="18" height="18" viewBox="0 0 18 18" fill="none" xmlns="http://www.w3.org/2000/svg">
<path d="M13.5 10.5001C13.0569 10.503 12.6199 10.6041 12.2205 10.796C11.8211 10.9879 11.4692 11.2659 11.19 11.6101L7.36499 9.84759C7.54483 9.2969 7.54483 8.70327 7.36499 8.15259L11.19 6.39009C11.6412 6.93456 12.2702 7.30214 12.9661 7.42797C13.662 7.55379 14.3799 7.42976 14.9932 7.07776C15.6065 6.72577 16.0758 6.16844 16.3182 5.50414C16.5605 4.83984 16.5605 4.11127 16.318 3.44702C16.0755 2.78276 15.6061 2.22552 14.9927 1.87364C14.3794 1.52176 13.6614 1.39786 12.9656 1.5238C12.2697 1.64975 11.6408 2.01745 11.1896 2.56201C10.7385 3.10656 10.4943 3.79297 10.5 4.50009C10.5022 4.67876 10.5198 4.85691 10.5525 5.03259L6.59249 6.85509C6.1703 6.44227 5.63567 6.16322 5.05559 6.05291C4.47552 5.94259 3.87578 6.00591 3.33153 6.23493C2.78728 6.46396 2.32271 6.8485 1.99604 7.34038C1.66937 7.83226 1.49512 8.40961 1.49512 9.00009C1.49512 9.59056 1.66937 10.1679 1.99604 10.6598C2.32271 11.1517 2.78728 11.5362 3.33153 11.7652C3.87578 11.9943 4.47552 12.0576 5.05559 11.9473C5.63567 11.8369 6.1703 11.5579 6.59249 11.1451L10.5525 12.9676C10.5198 13.1433 10.5022 13.3214 10.5 13.5001C10.5 14.0934 10.6759 14.6734 11.0056 15.1668C11.3352 15.6601 11.8038 16.0447 12.3519 16.2717C12.9001 16.4988 13.5033 16.5582 14.0853 16.4424C14.6672 16.3267 15.2018 16.041 15.6213 15.6214C16.0409 15.2018 16.3266 14.6673 16.4423 14.0854C16.5581 13.5034 16.4987 12.9002 16.2716 12.352C16.0446 11.8039 15.66 11.3353 15.1667 11.0057C14.6734 10.676 14.0933 10.5001 13.5 10.5001ZM13.5 3.00009C13.7967 3.00009 14.0867 3.08806 14.3333 3.25288C14.58 3.4177 14.7723 3.65197 14.8858 3.92606C14.9993 4.20015 15.029 4.50175 14.9712 4.79272C14.9133 5.08369 14.7704 5.35097 14.5607 5.56075C14.3509 5.77052 14.0836 5.91339 13.7926 5.97126C13.5017 6.02914 13.2001 5.99944 12.926 5.88591C12.6519 5.77237 12.4176 5.58011 12.2528 5.33344C12.088 5.08677 12 4.79676 12 4.50009C12 4.10226 12.158 3.72073 12.4393 3.43943C12.7206 3.15812 13.1022 3.00009 13.5 3.00009ZM4.49999 10.5001C4.20332 10.5001 3.91331 10.4121 3.66664 10.2473C3.41996 10.0825 3.2277 9.8482 3.11417 9.57411C3.00064 9.30002 2.97093 8.99842 3.02881 8.70745C3.08669 8.41648 3.22955 8.1492 3.43933 7.93943C3.64911 7.72965 3.91638 7.58679 4.20736 7.52891C4.49833 7.47103 4.79993 7.50073 5.07402 7.61427C5.3481 7.7278 5.58237 7.92006 5.74719 8.16673C5.91202 8.4134 5.99999 8.70341 5.99999 9.00009C5.99999 9.39791 5.84196 9.77944 5.56065 10.0607C5.27935 10.3421 4.89782 10.5001 4.49999 10.5001ZM13.5 15.0001C13.2033 15.0001 12.9133 14.9121 12.6666 14.7473C12.42 14.5825 12.2277 14.3482 12.1142 14.0741C12.0006 13.8 11.9709 13.4984 12.0288 13.2075C12.0867 12.9165 12.2296 12.6492 12.4393 12.4394C12.6491 12.2296 12.9164 12.0868 13.2074 12.0289C13.4983 11.971 13.7999 12.0007 14.074 12.1143C14.3481 12.2278 14.5824 12.4201 14.7472 12.6667C14.912 12.9134 15 13.2034 15 13.5001C15 13.8979 14.842 14.2794 14.5607 14.5607C14.2793 14.8421 13.8978 15.0001 13.5 15.0001Z" fill="#BDBDBD"/>
</svg>
