<svg width="13" height="13" viewBox="0 0 13 13" fill="none" xmlns="http://www.w3.org/2000/svg">
<path d="M4.08824 11.7816C8.99392 11.7816 11.6771 7.7173 11.6771 4.19274C11.6771 4.0773 11.6771 3.96238 11.6693 3.84798C12.1913 3.47042 12.6419 3.00292 13 2.46738C12.5133 2.68318 11.9969 2.82464 11.4681 2.88702C12.0249 2.55373 12.4416 2.02945 12.6407 1.41178C12.1171 1.72249 11.5443 1.94144 10.947 2.05918C10.5449 1.63158 10.013 1.34843 9.43377 1.25355C8.8545 1.15868 8.2601 1.25736 7.74257 1.53433C7.22503 1.81131 6.8132 2.25113 6.57082 2.78574C6.32843 3.32036 6.269 3.91995 6.40172 4.49174C5.34132 4.43855 4.30395 4.16297 3.35695 3.68288C2.40996 3.2028 1.5745 2.52895 0.9048 1.70506C0.563728 2.29223 0.459264 2.98731 0.612679 3.64879C0.766094 4.31027 1.16585 4.88841 1.73056 5.2655C1.30608 5.25306 0.890851 5.13855 0.52 4.93166V4.96546C0.520169 5.58125 0.733336 6.17803 1.12335 6.65458C1.51336 7.13112 2.0562 7.45809 2.6598 7.58002C2.26714 7.68713 1.85514 7.70278 1.45548 7.62578C1.62598 8.15571 1.95782 8.61911 2.40459 8.95121C2.85136 9.2833 3.39074 9.46749 3.94732 9.47802C3.39432 9.9127 2.76105 10.2341 2.08372 10.4238C1.4064 10.6135 0.698325 10.6678 0 10.5835C1.21974 11.3663 2.63896 11.7814 4.08824 11.7795" fill="#1A1A1C"/>
</svg>
