<svg width="25" height="25" viewBox="0 0 25 25" fill="none" xmlns="http://www.w3.org/2000/svg">
<path fill-rule="evenodd" clip-rule="evenodd" d="M1.64911 9.34993C0.889688 10.0334 0.456055 11.007 0.456055 12.0288V21.2357C0.456055 23.2262 2.06963 24.8397 4.06006 24.8397H20.8787C22.8692 24.8397 24.4827 23.2262 24.4827 21.2357V12.0288C24.4827 11.007 24.0491 10.0334 23.2897 9.34993L14.8804 1.78152C13.5098 0.547964 11.429 0.547964 10.0584 1.78153L1.64911 9.34993ZM11.2681 14.0277C9.94111 14.0277 8.8654 15.1034 8.8654 16.4304V21.2357C8.8654 21.8992 9.40326 22.437 10.0667 22.437H14.8721C15.5356 22.437 16.0734 21.8992 16.0734 21.2357V16.4304C16.0734 15.1034 14.9977 14.0277 13.6707 14.0277H11.2681Z" fill="#9E9E9E"/>
</svg>
