<svg width="25" height="25" viewBox="0 0 25 25" fill="none" xmlns="http://www.w3.org/2000/svg">
<path fill-rule="evenodd" clip-rule="evenodd" d="M8.02902 9.15712C6.95435 9.13314 6.10254 8.2426 6.12634 7.16793C6.15013 6.09325 7.04052 5.24129 8.1152 5.26489C9.18988 5.2885 10.042 6.17874 10.0186 7.25342C10.0073 7.76975 9.79136 8.26044 9.41822 8.61748C9.04507 8.97452 8.54534 9.16864 8.02902 9.15712V9.15712Z" stroke="black" stroke-width="1.5" stroke-linecap="round" stroke-linejoin="round"/>
<path fill-rule="evenodd" clip-rule="evenodd" d="M16.9709 15.8429C18.0458 15.8663 18.8981 16.7566 18.8747 17.8314C18.8512 18.9062 17.9609 19.7585 16.8861 19.7351C15.8113 19.7117 14.959 18.8214 14.9824 17.7466C15.0058 16.6718 15.8961 15.8194 16.9709 15.8429V15.8429Z" stroke="black" stroke-width="1.5" stroke-linecap="round" stroke-linejoin="round"/>
<path d="M16.9395 11.9481C16.9303 12.3703 17.2652 12.7201 17.6874 12.7293C18.1097 12.7385 18.4595 12.4037 18.4687 11.9814L16.9395 11.9481ZM17.7422 10.2174L18.5068 10.2341L18.5068 10.2296L17.7422 10.2174ZM14.9771 7.36149L14.9605 8.12609L14.9647 8.12616L14.9771 7.36149ZM10.0352 6.48885C9.61293 6.47965 9.26315 6.81451 9.25395 7.23678C9.24475 7.65905 9.5796 8.00882 10.0019 8.01803L10.0352 6.48885ZM17.1752 11.4123C16.8701 11.7044 16.8596 12.1885 17.1517 12.4936C17.4437 12.7987 17.9279 12.8092 18.2329 12.5172L17.1752 11.4123ZM20.2215 10.6134C20.5266 10.3213 20.5371 9.83724 20.245 9.53214C19.953 9.22704 19.4689 9.2165 19.1638 9.50858L20.2215 10.6134ZM17.1517 12.4936C17.4437 12.7987 17.9279 12.8092 18.2329 12.5172C18.538 12.2251 18.5486 11.741 18.2565 11.4359L17.1517 12.4936ZM16.3528 9.44732C16.0607 9.14223 15.5766 9.13168 15.2715 9.42376C14.9664 9.71584 14.9559 10.2 15.2479 10.505L16.3528 9.44732ZM8.06035 13.0529C8.06956 12.6307 7.7347 12.2809 7.31243 12.2717C6.89016 12.2625 6.54038 12.5974 6.53118 13.0196L8.06035 13.0529ZM7.25771 14.7826L6.49311 14.7659L6.49304 14.7704L7.25771 14.7826ZM10.0227 17.6385L10.0394 16.8739L10.0352 16.8738L10.0227 17.6385ZM14.9647 18.5111C15.3869 18.5203 15.7367 18.1855 15.7459 17.7632C15.7551 17.3409 15.4203 16.9912 14.998 16.982L14.9647 18.5111ZM7.82465 13.5877C8.12975 13.2956 8.1403 12.8115 7.84821 12.5064C7.55613 12.2013 7.07202 12.1908 6.76693 12.4828L7.82465 13.5877ZM4.77839 14.3866C4.47329 14.6786 4.46274 15.1628 4.75482 15.4679C5.04691 15.7729 5.53102 15.7835 5.83611 15.4914L4.77839 14.3866ZM7.84821 12.5064C7.55613 12.2013 7.07202 12.1908 6.76692 12.4828C6.46183 12.7749 6.45128 13.259 6.74336 13.5641L7.84821 12.5064ZM8.64708 15.5527C8.93916 15.8578 9.42327 15.8683 9.72837 15.5762C10.0335 15.2841 10.044 14.8 9.75193 14.4949L8.64708 15.5527ZM18.4687 11.9814L18.5067 10.234L16.9776 10.2007L16.9395 11.9481L18.4687 11.9814ZM18.5068 10.2296C18.5384 8.25534 16.9639 6.62907 14.9896 6.59683L14.9647 8.12616C16.0945 8.14461 16.9956 9.0753 16.9775 10.2052L18.5068 10.2296ZM14.9938 6.59691L10.0352 6.48885L10.0019 8.01803L14.9605 8.12608L14.9938 6.59691ZM18.2329 12.5172L20.2215 10.6134L19.1638 9.50858L17.1752 11.4123L18.2329 12.5172ZM18.2565 11.4359L16.3528 9.44732L15.2479 10.505L17.1517 12.4936L18.2565 11.4359ZM6.53118 13.0196L6.49312 14.7659L8.0223 14.7993L8.06035 13.0529L6.53118 13.0196ZM6.49304 14.7704C6.46145 16.7447 8.03597 18.3709 10.0102 18.4032L10.0352 16.8738C8.90537 16.8554 8.0043 15.9247 8.02238 14.7948L6.49304 14.7704ZM10.0061 18.4031L14.9647 18.5111L14.998 16.982L10.0394 16.8739L10.0061 18.4031ZM6.76693 12.4828L4.77839 14.3866L5.83611 15.4914L7.82465 13.5877L6.76693 12.4828ZM6.74336 13.5641L8.64708 15.5527L9.75193 14.4949L7.84821 12.5064L6.74336 13.5641Z" fill="black"/>
</svg>
