<svg width="13" height="13" viewBox="0 0 13 13" fill="none" xmlns="http://www.w3.org/2000/svg">
<g clip-path="url(#clip0_1_616)">
<path d="M12.7411 3.35044C12.6676 3.07387 12.5228 2.82146 12.3211 2.61846C12.1194 2.41546 11.8679 2.269 11.5918 2.19374C10.5754 1.92044 6.51294 1.92044 6.51294 1.92044C6.51294 1.92044 2.45044 1.92044 1.43408 2.19374C1.15798 2.269 0.906505 2.41546 0.704804 2.61846C0.503102 2.82146 0.358255 3.07387 0.284758 3.35044C0.0129395 4.37124 0.0129395 6.49999 0.0129395 6.49999C0.0129395 6.49999 0.0129395 8.62874 0.284758 9.64953C0.358255 9.9261 0.503102 10.1785 0.704804 10.3815C0.906505 10.5845 1.15798 10.731 1.43408 10.8062C2.45044 11.0795 6.51294 11.0795 6.51294 11.0795C6.51294 11.0795 10.5754 11.0795 11.5918 10.8062C11.8679 10.731 12.1194 10.5845 12.3211 10.3815C12.5228 10.1785 12.6676 9.9261 12.7411 9.64953C13.0129 8.62874 13.0129 6.49999 13.0129 6.49999C13.0129 6.49999 13.0129 4.37124 12.7411 3.35044Z" fill="#1A1A1C"/>
<path d="M5.18335 8.43304V4.56702L8.58107 6.50003L5.18335 8.43304Z" fill="#FEFEFE"/>
</g>
<defs>
<clipPath id="clip0_1_616">
<rect width="13" height="13" fill="white"/>
</clipPath>
</defs>
</svg>
